<?xml version="1.0" standalone="no"?>
<!DOCTYPE svg PUBLIC "-//W3C//DTD SVG 20010904//EN"
 "http://www.w3.org/TR/2001/REC-SVG-20010904/DTD/svg10.dtd">
<svg version="1.0" xmlns="http://www.w3.org/2000/svg"
 width="583.000000pt" height="579.000000pt" viewBox="0 0 583.000000 579.000000"
 preserveAspectRatio="xMidYMid meet">

<g transform="translate(0.000000,579.000000) scale(0.100000,-0.100000)"
fill="#000000" stroke="none">
<path d="M112 2898 l3 -2773 2800 0 2800 0 2 2773 3 2772 -2805 0 -2805 0 2
-2772z m1423 2142 l-200 -200 543 0 543 0 200 200 200 200 452 0 452 0 -200
-200 -200 -200 540 0 540 0 200 200 200 200 232 0 233 0 0 -218 0 -218 -199
-199 -200 -200 0 -522 c-1 -286 2 -529 5 -538 5 -13 49 25 199 175 l192 192 6
-249 c4 -136 7 -336 7 -443 l0 -194 -205 -206 -205 -206 0 -517 c0 -285 3
-524 7 -533 4 -12 56 34 199 177 106 106 195 191 198 189 2 -3 6 -264 8 -580
l3 -575 -582 -3 c-321 -1 -583 1 -583 6 0 4 81 88 180 187 99 99 180 183 180
187 0 5 -239 8 -532 8 l-532 0 -195 -195 -195 -195 -451 0 -450 0 188 188
c103 103 187 191 187 195 0 4 -242 7 -537 7 l-537 0 -195 -195 -195 -195 -243
0 -243 0 0 208 0 208 196 194 c108 107 200 203 205 212 10 19 11 1068 0 1068
-3 0 -95 -89 -205 -198 l-198 -197 6 457 5 458 201 199 201 199 -2 536 c-1
295 -4 536 -8 536 -3 0 -92 -87 -198 -192 l-193 -193 0 588 0 587 587 0 588 0
-200 -200z"/>
<path d="M3405 4751 c-6 -5 -158 -99 -340 -208 -357 -215 -502 -303 -895 -541
-140 -85 -346 -209 -457 -276 -111 -66 -203 -124 -203 -128 0 -8 296 -300 305
-300 3 0 90 52 192 117 l187 116 223 -223 c122 -122 219 -226 215 -230 -4 -4
-102 -51 -217 -104 -116 -53 -235 -107 -265 -121 -160 -73 -200 -93 -200 -98
0 -4 3 -4 8 -2 4 3 151 48 327 102 603 183 839 255 840 258 0 1 17 28 38 59
20 32 37 60 37 64 0 3 10 20 23 37 12 18 27 41 33 52 10 18 66 110 362 595 52
85 102 169 112 185 9 17 43 72 75 123 l58 93 -221 220 c-121 120 -222 219
-224 219 -2 0 -8 -4 -13 -9z m-7 -513 c-19 -29 -37 -60 -41 -68 -4 -8 -24 -42
-45 -75 -41 -64 -246 -395 -347 -559 -33 -55 -65 -101 -70 -103 -15 -5 -339
323 -331 335 3 5 43 32 88 59 46 28 143 87 216 132 335 206 402 247 477 292
43 26 81 46 83 44 2 -2 -12 -27 -30 -57z"/>
<path d="M4575 3166 c-38 -13 -158 -51 -265 -84 -401 -125 -525 -165 -533
-169 -4 -2 21 -23 55 -46 88 -59 200 -167 226 -220 24 -48 28 -96 11 -130 -6
-12 -61 -73 -122 -134 l-111 -113 146 -145 c80 -80 150 -145 155 -145 15 0
216 210 252 263 80 118 119 252 101 345 -17 91 -50 139 -180 261 -66 62 -119
118 -118 123 2 5 102 52 223 104 121 53 224 100 230 105 11 11 14 12 -70 -15z"/>
<path d="M3329 3006 c-4 -5 -186 -60 -854 -262 l-410 -123 -452 -458 c-249
-252 -453 -463 -453 -469 0 -7 90 -99 200 -205 110 -106 200 -195 200 -199 0
-4 -80 -44 -177 -90 -98 -45 -182 -87 -188 -93 -7 -7 -7 -8 0 -5 6 3 78 26
160 51 83 25 263 80 400 122 138 42 253 80 258 84 4 4 -63 74 -149 156 l-155
148 278 281 c153 155 397 401 541 548 l262 267 267 116 c233 101 304 135 282
135 -3 0 -8 -2 -10 -4z"/>
<path d="M3305 2759 c-181 -54 -357 -106 -390 -115 -57 -17 -69 -26 -242 -197
-159 -157 -185 -188 -212 -247 -63 -135 -72 -261 -29 -377 55 -148 414 -508
592 -593 123 -58 274 -53 406 15 27 14 106 85 198 177 l152 153 -150 150 -150
150 -102 -102 c-114 -112 -132 -124 -180 -122 -29 2 -54 23 -197 169 -155 159
-163 170 -168 213 -5 41 -2 49 24 74 16 15 155 145 308 288 363 337 484 454
476 458 -3 2 -154 -41 -336 -94z"/>
</g>
</svg>
